<svg width="256" height="256" viewBox="0 0 256 256" fill="none" xmlns="http://www.w3.org/2000/svg">
<rect width="256" height="256" rx="35" fill="#007BFF"/>
<rect width="256" height="256" rx="35" fill="url(#paint0_linear)"/>
<path d="M134.732 213.331C99.6083 234.364 63.3617 212.292 43.865 165.874C24.0628 119.639 31.5206 73.8863 63.5904 54.6823C88.6354 39.685 107.341 48.4014 111.819 58.998C114.256 64.8002 114.25 72.0656 105.087 77.5525C97.4512 82.1248 93.5473 78.0308 92.2378 74.4581C87.8528 61.9383 83.5922 46.8544 68.9317 55.6333C46.941 68.8018 52.035 108.491 69.8262 150.328C87.4648 192.257 108.842 217.216 131.225 209.207C168.052 195.868 156.806 140.36 146.387 150.334C143.638 153.018 139.057 154.723 136.833 149.623C135.341 145.745 137.603 141.901 140.505 140.163C156.845 130.378 177.492 187.725 134.732 213.331ZM188.156 97.1849C185.013 89.8352 179.704 89.6577 175.565 92.136C171.056 94.8363 168.764 103.342 169.498 111.295L169.374 111.369L162.967 96.3233C156.017 80.0921 155.828 84.4014 166.608 83.0649C172.301 82.3413 170.889 73.1162 162.983 77.8509C157.423 81.18 149.091 92.6316 154.254 104.898L168.671 139.064L178.616 133.109L172.886 119.756C169.362 111.628 170.123 102.108 173.83 99.889C175.065 99.1492 176.732 99.4099 178.026 102.412L182.585 113.109C185.21 119.174 189.006 127.895 186.08 126.374C175.997 121.166 177.071 134.873 184.052 130.694C189.611 127.364 196.646 117.109 190.435 102.534L188.156 97.1849ZM191.732 68.4399C193.125 71.8862 196.865 73.0871 200.015 71.2007C203.166 69.3142 204.552 65.043 203.16 61.5967C201.706 58.1874 197.929 56.9247 194.778 58.8112C191.628 60.6976 190.278 65.0306 191.732 68.4399ZM209.332 78.6299C208.223 75.937 205.816 74.021 201.492 76.6103C197.786 78.8297 195.003 84.6926 195.922 92.1145L197.034 91.8685C196.347 86.2372 198.709 82.893 200.988 88.2416L209.614 108.673C210.723 111.365 213.129 113.281 217.453 110.692C221.16 108.473 223.943 102.61 223.023 95.188L221.912 95.4339C222.598 101.065 220.237 104.409 217.957 99.0608L209.332 78.6299Z" fill="white"/>
<defs>
<linearGradient id="paint0_linear" x1="249" y1="-3.20885e-06" x2="5.74119e-06" y2="261" gradientUnits="userSpaceOnUse">
<stop stop-color="#A8CBFE"/>
<stop offset="0.584175" stop-color="#007BFF" stop-opacity="0.4"/>
</linearGradient>
</defs>
</svg>
